<svg width="32" height="32" viewBox="0 0 32 32" fill="none" xmlns="http://www.w3.org/2000/svg">
<g clip-path="url(#clip0_6368_28845)">
<path d="M31.9999 11.3103V2.84972C31.9999 2.4746 31.9265 2.10318 31.7839 1.75675C31.6413 1.41033 31.4323 1.09571 31.1689 0.830959C30.9056 0.566206 30.593 0.356523 30.2492 0.213931C29.9053 0.0713389 29.537 -0.00135588 29.1652 1.91478e-05L20.8195 0.0316114C20.0748 0.0408804 19.3638 0.346659 18.8414 0.88237C18.319 1.41808 18.0275 2.14035 18.0303 2.89192C18.0331 3.64348 18.3301 4.36349 18.8565 4.89518C19.3829 5.42688 20.0962 5.7272 20.841 5.73076L23.496 5.72081C23.8678 5.71937 24.2361 5.79201 24.58 5.93456C24.9239 6.07712 25.2365 6.28677 25.4998 6.55151C25.7632 6.81625 25.9722 7.13086 26.1147 7.47729C26.2573 7.82372 26.3307 8.19515 26.3307 8.57027V11.3327C26.3308 11.8962 26.4965 12.4471 26.8068 12.9157C27.1172 13.3843 27.5582 13.7495 28.0742 13.9651C28.5902 14.1807 29.158 14.2371 29.7058 14.1272C30.2536 14.0172 30.7568 13.7459 31.1517 13.3474L31.1729 13.326C31.4351 13.0614 31.6431 12.7473 31.785 12.4016C31.9269 12.0559 31.9999 11.6854 31.9999 11.3113" fill="white"/>
<path d="M28.6204 29.1291V20.6676C28.6204 20.2925 28.5471 19.921 28.4045 19.5746C28.2619 19.2281 28.0529 18.9135 27.7896 18.6488C27.5262 18.384 27.2136 18.1744 26.8697 18.0318C26.5258 17.8893 26.1574 17.8167 25.7857 17.8181L17.4403 17.8495C16.6955 17.8587 15.9846 18.1644 15.4621 18.7001C14.9397 19.2358 14.6481 19.958 14.6509 20.7095C14.6537 21.4611 14.9505 22.1811 15.4769 22.7128C16.0032 23.2446 16.7164 23.545 17.4612 23.5486L20.1165 23.5387C20.4882 23.5373 20.8566 23.6099 21.2005 23.7525C21.5443 23.8951 21.8569 24.1047 22.1202 24.3695C22.3836 24.6342 22.5926 24.9488 22.7352 25.2952C22.8778 25.6416 22.9512 26.013 22.9512 26.3881V29.1508C22.9513 29.7143 23.117 30.2652 23.4273 30.7338C23.7377 31.2024 24.1787 31.5676 24.6947 31.7832C25.2108 31.9989 25.7785 32.0553 26.3263 31.9453C26.8741 31.8354 27.3773 31.564 27.7722 31.1655L27.7934 31.1441C28.3228 30.6097 28.6203 29.8848 28.6204 29.1291Z" fill="white"/>
<path d="M13.9698 14.3457V5.88415C13.9698 5.50903 13.8964 5.1376 13.7538 4.79117C13.6112 4.44474 13.4022 4.13014 13.1389 3.8654C12.8755 3.60066 12.5629 3.39099 12.219 3.24844C11.8752 3.10589 11.5068 3.03325 11.1351 3.03469L2.78942 3.06603C2.04467 3.07526 1.33367 3.38099 0.811245 3.91665C0.288815 4.45232 -0.00274352 5.17454 1.946e-05 5.92608C0.00278244 6.67763 0.299665 7.39765 0.826019 7.92939C1.35237 8.46113 2.06559 8.76152 2.81039 8.76518L5.46541 8.75524C5.83717 8.75376 6.20552 8.82638 6.5494 8.96892C6.89327 9.11146 7.20587 9.32112 7.46925 9.58587C7.73263 9.85061 7.94162 10.1652 8.0842 10.5117C8.22678 10.8581 8.30016 11.2296 8.30012 11.6047V14.3671C8.3002 14.9307 8.46587 15.4816 8.77621 15.9501C9.08655 16.4187 9.52762 16.7839 10.0436 16.9995C10.5596 17.2151 11.1274 17.2716 11.6752 17.1616C12.223 17.0517 12.7262 16.7803 13.1211 16.3818L13.1425 16.3606C13.6721 15.8263 13.9697 15.1014 13.9698 14.3457Z" fill="white"/>
</g>
<defs>
<clipPath id="clip0_6368_28845">
<rect width="32" height="32" fill="white"/>
</clipPath>
</defs>
</svg>
